<svg width="100%" height="100%" id="svg" viewBox="0 0 1440 400" xmlns="http://www.w3.org/2000/svg" class="transition duration-300 ease-in-out delay-150"><defs><linearGradient id="gradient" x1="0%" y1="56%" x2="100%" y2="44%"><stop offset="5%" stop-color="#0693e388"></stop><stop offset="95%" stop-color="#8ed1fc88"></stop></linearGradient></defs><path d="M 0,400 C 0,400 0,133 0,133 C 47.15355547921675,152.43593266918583 94.3071109584335,171.8718653383717 172,163 C 249.6928890415665,154.1281346616283 357.9251116454827,116.94847131569907 431,118 C 504.0748883545173,119.05152868430093 541.9924424596359,158.33424939883201 612,155 C 682.0075575403641,151.66575060116799 784.1051185159739,105.71453108897288 850,86 C 915.8948814840261,66.28546891102712 945.5870834764685,72.80762624527652 1008,85 C 1070.4129165235315,97.19237375472348 1165.5465475781518,115.054963929921 1243,124 C 1320.4534524218482,132.945036070079 1380.226726210924,132.9725180350395 1440,133 C 1440,133 1440,400 1440,400 Z" stroke="none" stroke-width="0" fill="url(#gradient)" class="transition-all duration-300 ease-in-out delay-150 path-0"></path><defs><linearGradient id="gradient" x1="0%" y1="56%" x2="100%" y2="44%"><stop offset="5%" stop-color="#0693e3ff"></stop><stop offset="95%" stop-color="#8ed1fcff"></stop></linearGradient></defs><path d="M 0,400 C 0,400 0,266 0,266 C 60.684987976640315,253.17828924768122 121.36997595328063,240.35657849536244 193,249 C 264.63002404671937,257.64342150463756 347.2050841635177,287.75197526623157 418,283 C 488.7949158364823,278.24802473376843 547.8096873926486,238.63552043971143 616,235 C 684.1903126073514,231.36447956028857 761.5561662658879,263.70594297492266 823,278 C 884.4438337341121,292.29405702507734 929.9656475437994,288.5407076605978 999,292 C 1068.0343524562006,295.4592923394022 1160.5812435589144,306.13122638268635 1238,303 C 1315.4187564410856,299.86877361731365 1377.709378220543,282.9343868086568 1440,266 C 1440,266 1440,400 1440,400 Z" stroke="none" stroke-width="0" fill="url(#gradient)" class="transition-all duration-300 ease-in-out delay-150 path-1"></path></svg>